<?xml version="1.0" encoding="UTF-8" standalone="no"?>
<!-- Created with Inkscape (http://www.inkscape.org/) -->

<svg
   xmlns:dc="http://purl.org/dc/elements/1.1/"
   xmlns:cc="http://creativecommons.org/ns#"
   xmlns:rdf="http://www.w3.org/1999/02/22-rdf-syntax-ns#"
   xmlns:svg="http://www.w3.org/2000/svg"
   xmlns="http://www.w3.org/2000/svg"
   xmlns:xlink="http://www.w3.org/1999/xlink"
   xmlns:sodipodi="http://sodipodi.sourceforge.net/DTD/sodipodi-0.dtd"
   xmlns:inkscape="http://www.inkscape.org/namespaces/inkscape"
   width="841.88977pt"
   height="595.27557pt"
   viewBox="0 0 1052.3622 744.09448"
   id="svg2"
   version="1.1"
   inkscape:version="0.91 r13725"
   sodipodi:docname="saarbruecken.svg">
  <defs
     id="defs4" />
  <sodipodi:namedview
     id="base"
     pagecolor="#ffffff"
     bordercolor="#666666"
     borderopacity="1.0"
     inkscape:pageopacity="0.0"
     inkscape:pageshadow="2"
     inkscape:zoom="2.8284272"
     inkscape:cx="532.53799"
     inkscape:cy="409.96024"
     inkscape:document-units="pt"
     inkscape:current-layer="layer2"
     showgrid="false"
     units="pt"
     inkscape:snap-page="true"
     inkscape:object-paths="true"
     inkscape:snap-intersection-paths="true"
     inkscape:object-nodes="true"
     inkscape:snap-smooth-nodes="true"
     inkscape:window-width="1916"
     inkscape:window-height="1180"
     inkscape:window-x="0"
     inkscape:window-y="0"
     inkscape:window-maximized="0"
     inkscape:snap-midpoints="false"
     inkscape:snap-global="true"
     inkscape:snap-center="true"
     inkscape:snap-nodes="true"
     inkscape:snap-others="true" />
  <metadata
     id="metadata7">
    <rdf:RDF>
      <cc:Work
         rdf:about="">
        <dc:format>image/svg+xml</dc:format>
        <dc:type
           rdf:resource="http://purl.org/dc/dcmitype/StillImage" />
        <dc:title></dc:title>
      </cc:Work>
    </rdf:RDF>
  </metadata>
  <g
     inkscape:label="Bitmap"
     inkscape:groupmode="layer"
     id="layer1"
     transform="translate(0,-308.26772)"
     style="display:inline;opacity:0.6"
     sodipodi:insensitive="true">
    <image
       sodipodi:absref="/home/m/git/rwh/data/plans/de/bitmaps/saabrücken.jpg"
       xlink:href="bitmaps/saabrücken.jpg"
       width="1056.6176"
       height="769.27576"
       preserveAspectRatio="none"
       style="image-rendering:optimizeSpeed"
       id="image5156"
       x="-0.30867925"
       y="297.7243" />
  </g>
  <g
     inkscape:groupmode="layer"
     id="layer2"
     inkscape:label="Content"
     style="display:inline">
    <path
       style="color:#000000;clip-rule:nonzero;display:inline;overflow:visible;visibility:visible;opacity:1;isolation:auto;mix-blend-mode:normal;color-interpolation:sRGB;color-interpolation-filters:linearRGB;solid-color:#000000;solid-opacity:1;fill:none;fill-opacity:1;fill-rule:evenodd;stroke:#000000;stroke-width:1;stroke-linecap:round;stroke-linejoin:miter;stroke-miterlimit:4;stroke-dasharray:none;stroke-dashoffset:0;stroke-opacity:1;marker:none;color-rendering:auto;image-rendering:auto;shape-rendering:auto;text-rendering:auto;enable-background:accumulate"
       d="M 816.0012,-15.338196 805.04105,8.7034343 C 799.59537,20.648801 790.44571,31.380058 779.58521,38.755472 L 684.8329,103.10219 c -6.42948,4.36629 -12.33257,9.56074 -17.67767,15.20279 l -19.09188,20.15255 c -13.15533,13.88619 -24.55406,34.08697 -21.92031,53.033 l 10.96015,78.84241 c 1.17115,8.4247 0.35386,17.21898 -1.76776,25.45584 l -6.01041,23.33452 c -2.25451,8.75281 -12.36533,14.23528 -20.85965,17.32412 l -19.44544,7.07107 c -3.88277,1.41192 -8.27816,1.24607 -12.37437,0.7071 l -10.7439,-1.41367"
       id="path5171" />
    <path
       style="color:#000000;clip-rule:nonzero;display:inline;overflow:visible;visibility:visible;opacity:1;isolation:auto;mix-blend-mode:normal;color-interpolation:sRGB;color-interpolation-filters:linearRGB;solid-color:#000000;solid-opacity:1;fill:none;fill-opacity:1;fill-rule:evenodd;stroke:#000000;stroke-width:1;stroke-linecap:round;stroke-linejoin:miter;stroke-miterlimit:4;stroke-dasharray:none;stroke-dashoffset:0;stroke-opacity:1;marker:none;color-rendering:auto;image-rendering:auto;shape-rendering:auto;text-rendering:auto;enable-background:accumulate"
       d="m 565.90166,342.81192 -42.99621,-5.65739 c -6.09384,-0.80182 -12.24934,-1.78052 -18.38478,-1.41422 l -47.37615,2.82843 c -17.30292,1.03301 -36.17217,15.95438 -40.37581,32.77066 l -2.8868,11.54836 c -0.85767,3.43104 -1.09552,6.96872 -0.97261,10.5032 l 0.60171,17.30267 c 0.19033,5.47312 -0.68645,11.03897 -2.32843,16.26345 l -3.88908,12.37437 c -0.84877,2.70064 -1.18931,5.6557 -1.10356,8.48528 l 0.39645,13.08148 c 0.69929,23.07409 -12.52824,48.17803 -31.1127,61.87184 l -47.0226,34.64823 c -8.59669,6.3344 -15.47586,14.91718 -21.56676,23.68808 l -17.67766,25.45584 c -5.08625,7.3242 -11.71957,13.5918 -18.73833,19.09188 l -60.45763,47.37616 c -17.67972,13.85429 -31.93034,31.99707 -50.55814,44.54772 l -49.85102,33.58757"
       id="path5163" />
    <path
       style="color:#000000;clip-rule:nonzero;display:inline;overflow:visible;visibility:visible;opacity:1;isolation:auto;mix-blend-mode:normal;color-interpolation:sRGB;color-interpolation-filters:linearRGB;solid-color:#000000;solid-opacity:1;fill:none;fill-opacity:1;fill-rule:evenodd;stroke:#000000;stroke-width:0.125;stroke-linecap:round;stroke-linejoin:miter;stroke-miterlimit:4;stroke-dasharray:none;stroke-dashoffset:0;stroke-opacity:1;marker:none;color-rendering:auto;image-rendering:auto;shape-rendering:auto;text-rendering:auto;enable-background:accumulate"
       d="m 570.39809,308.63903 -4.49643,34.17289"
       id="path5167"
       inkscape:connector-curvature="0" />
    <path
       style="color:#000000;clip-rule:nonzero;display:inline;overflow:visible;visibility:visible;opacity:1;isolation:auto;mix-blend-mode:normal;color-interpolation:sRGB;color-interpolation-filters:linearRGB;solid-color:#000000;solid-opacity:1;fill:#000000;fill-opacity:1;fill-rule:evenodd;stroke:none;stroke-width:1;stroke-linecap:butt;stroke-linejoin:round;stroke-miterlimit:4;stroke-dasharray:none;stroke-dashoffset:0;stroke-opacity:1;marker:none;marker-start:none;marker-mid:none;marker-end:none;color-rendering:auto;image-rendering:auto;shape-rendering:auto;text-rendering:auto;enable-background:accumulate"
       d="m 566.88828,347.29146 -3.0983,-0.40775 c -0.32607,-0.0428 -0.5541,-0.33998 -0.51132,-0.66616 l 0.48517,-3.68692 4.27567,0.56258 -0.48518,3.68693 c -0.0429,0.3262 -0.33994,0.55422 -0.66604,0.51132 z"
       id="rect4652-4-5-9-3-0-1-7"
       inkscape:connector-curvature="0"
       sodipodi:nodetypes="sssccss"
       inkscape:transform-center-x="2.3829985"
       inkscape:transform-center-y="1.8204277" />
    <path
       style="color:#000000;font-style:normal;font-variant:normal;font-weight:normal;font-stretch:normal;font-size:medium;line-height:normal;font-family:sans-serif;text-indent:0;text-align:start;text-decoration:none;text-decoration-line:none;text-decoration-style:solid;text-decoration-color:#000000;letter-spacing:normal;word-spacing:normal;text-transform:none;direction:ltr;block-progression:tb;writing-mode:lr-tb;baseline-shift:baseline;text-anchor:start;white-space:normal;clip-rule:nonzero;display:inline;overflow:visible;visibility:visible;opacity:1;isolation:auto;mix-blend-mode:normal;color-interpolation:sRGB;color-interpolation-filters:linearRGB;solid-color:#000000;solid-opacity:1;fill:none;fill-opacity:1;fill-rule:evenodd;stroke:#000000;stroke-width:1;stroke-linecap:round;stroke-linejoin:miter;stroke-miterlimit:4;stroke-dasharray:none;stroke-dashoffset:0;stroke-opacity:1;marker:none;color-rendering:auto;image-rendering:auto;shape-rendering:auto;text-rendering:auto;enable-background:accumulate"
       d="m 566.14648,340.95312 10.74414,1.41407 c 3.97354,0.52283 8.07694,0.62916 11.48829,-0.61133 l 19.44531,-7.07031 c 7.95459,-2.89229 19.0834,-1.7802 25.03633,4.23674 l 16.44023,16.61701 c 10.14099,10.25003 23.7395,17.66097 31.1127,30.05204 l 12.72792,21.38998 c 1.85012,3.10923 4.10344,5.98813 6.54074,8.66206 l 18.208,19.97576 c 2.94664,3.23272 6.46971,5.96778 10.19055,8.26745 l 6.07291,3.75337 c 5.9448,3.67419 13.34287,5.29902 20.32932,5.12652 l 14.31891,-0.35355 c 4.49438,-0.11097 9.01254,0.99645 13.25825,2.47487 l 39.59798,13.78858 c 13.77169,4.7955 34.05045,6.34488 43.48706,-4.77297 l 30.75915,-36.23922 c 6.99165,-8.23729 8.89757,-20.71995 7.77817,-31.46625 l -1.76776,-16.97056 c -0.5783,-5.55174 0.65606,-11.46268 3.18198,-16.44023 l 6.0104,-11.84404 c 4.3531,-8.57818 5.84716,-18.51304 6.54074,-28.1075 l 1.06066,-14.67246 c 1.14397,-15.8249 5.89764,-33.56557 17.67767,-44.19417 l 23.5113,-21.21321 c 11.86986,-10.70965 28.39083,-14.99083 41.18897,-24.57196 l 32.3501,-24.2184"
       id="path6402"
       inkscape:connector-curvature="0"
       sodipodi:nodetypes="cccssssssssssssssssssssssssc" />
    <path
       style="color:#000000;font-style:normal;font-variant:normal;font-weight:normal;font-stretch:normal;font-size:medium;line-height:normal;font-family:sans-serif;text-indent:0;text-align:start;text-decoration:none;text-decoration-line:none;text-decoration-style:solid;text-decoration-color:#000000;letter-spacing:normal;word-spacing:normal;text-transform:none;direction:ltr;block-progression:tb;writing-mode:lr-tb;baseline-shift:baseline;text-anchor:start;white-space:normal;clip-rule:nonzero;display:inline;overflow:visible;visibility:visible;opacity:1;isolation:auto;mix-blend-mode:normal;color-interpolation:sRGB;color-interpolation-filters:linearRGB;solid-color:#000000;solid-opacity:1;fill:none;fill-opacity:1;fill-rule:evenodd;stroke:#000000;stroke-width:1;stroke-linecap:round;stroke-linejoin:miter;stroke-miterlimit:4;stroke-dasharray:none;stroke-dashoffset:0;stroke-opacity:1;marker:none;color-rendering:auto;image-rendering:auto;shape-rendering:auto;text-rendering:auto;enable-background:accumulate"
       d="m 1032.5371,192.76367 -32.3496,24.21875 c -12.47398,9.33845 -29.05871,13.61996 -41.29492,24.66016 l -23.51172,21.21289 c -12.24739,11.05028 -17.00827,29.15667 -18.16797,45.19922 l -1.06055,14.67187 c -0.68778,9.51423 -2.17853,19.25219 -6.38281,27.53711 l -6.00976,11.84375 c -2.65354,5.22904 -3.95035,11.39576 -3.33789,17.27539 l 1.76953,16.97071 c 1.08882,10.45273 -0.83676,22.57 -7.43164,30.33984 l -30.75782,36.24023 c -4.35303,5.12858 -11.33208,7.43597 -19.05078,7.82618 -7.7187,0.3902 -16.08349,-1.16095 -22.80078,-3.5 L 782.55273,453.4707 c -4.33812,-1.5106 -9.02175,-2.6743 -13.78711,-2.55664 l -14.32031,0.35352 c -6.72797,0.16612 -13.86429,-1.41873 -19.5039,-4.9043 l -6.07227,-3.75195 c -3.62859,-2.24266 -7.04169,-4.89786 -9.87109,-8.00195 l -18.20703,-19.97657 c -2.38628,-2.61795 -4.57683,-5.41901 -6.36133,-8.41797 l -12.72657,-21.39062 c -7.65324,-12.8617 -21.41223,-20.30944 -31.33593,-30.33984 l -16.43946,-16.61719 c -6.54531,-6.6157 -18.12235,-7.67981 -26.61523,-4.5918 l -19.44531,7.07031 c -3.02242,1.09906 -6.91406,1.044 -10.78125,0.53516 L 566.3418,339.4668"
       id="path6402-7" />
    <path
       style="color:#000000;font-style:normal;font-variant:normal;font-weight:normal;font-stretch:normal;font-size:medium;line-height:normal;font-family:sans-serif;text-indent:0;text-align:start;text-decoration:none;text-decoration-line:none;text-decoration-style:solid;text-decoration-color:#000000;letter-spacing:normal;word-spacing:normal;text-transform:none;direction:ltr;block-progression:tb;writing-mode:lr-tb;baseline-shift:baseline;text-anchor:start;white-space:normal;clip-rule:nonzero;display:inline;overflow:visible;visibility:visible;opacity:1;isolation:auto;mix-blend-mode:normal;color-interpolation:sRGB;color-interpolation-filters:linearRGB;solid-color:#000000;solid-opacity:1;fill:none;fill-opacity:1;fill-rule:evenodd;stroke:#000000;stroke-width:1;stroke-linecap:round;stroke-linejoin:miter;stroke-miterlimit:4;stroke-dasharray:none;stroke-dashoffset:0;stroke-opacity:1;marker:none;color-rendering:auto;image-rendering:auto;shape-rendering:auto;text-rendering:auto;enable-background:accumulate"
       d="M 814.63672,-15.960938 803.67578,8.0820312 C 798.35251,19.758898 789.36718,30.298194 778.74219,37.513672 l -94.75196,64.347658 c -6.53388,4.43719 -12.51564,9.70347 -17.92382,15.41211 l -19.0918,20.15234 c -13.35732,14.09941 -25.05145,34.59682 -22.31641,54.27149 l 10.95899,78.84179 c 1.13844,8.18943 0.34612,16.79778 -1.73438,24.875 L 627.87305,318.75 c -2.05724,7.98826 -13.44881,9.94491 -21.20117,12.76367 l -19.44532,7.07031 c -2.51772,0.91554 -6.17325,0.9274 -9.89648,0.4375 l -10.74414,-1.41406"
       id="path5171-0"
       inkscape:connector-curvature="0"
       sodipodi:nodetypes="cssssscccssccc" />
  </g>
  <g
     inkscape:groupmode="layer"
     id="layer3"
     inkscape:label="Decoration"
     style="display:inline"
     sodipodi:insensitive="true">
    <rect
       style="color:#000000;clip-rule:nonzero;display:inline;overflow:visible;visibility:visible;opacity:1;isolation:auto;mix-blend-mode:normal;color-interpolation:sRGB;color-interpolation-filters:linearRGB;solid-color:#000000;solid-opacity:1;fill:none;fill-opacity:1;fill-rule:evenodd;stroke:#000000;stroke-width:0.99999994;stroke-linecap:round;stroke-linejoin:round;stroke-miterlimit:4;stroke-dasharray:none;stroke-dashoffset:0;stroke-opacity:1;marker:none;marker-start:none;marker-mid:none;marker-end:none;color-rendering:auto;image-rendering:auto;shape-rendering:auto;text-rendering:auto;enable-background:accumulate"
       id="rect4843"
       width="1008.8425"
       height="700.57483"
       x="21.759842"
       y="21.759817" />
    <rect
       style="color:#000000;clip-rule:nonzero;display:inline;overflow:visible;visibility:visible;opacity:1;isolation:auto;mix-blend-mode:normal;color-interpolation:sRGB;color-interpolation-filters:linearRGB;solid-color:#000000;solid-opacity:1;fill:none;fill-opacity:1;fill-rule:evenodd;stroke:#000000;stroke-width:1;stroke-linecap:round;stroke-linejoin:round;stroke-miterlimit:4;stroke-dasharray:none;stroke-dashoffset:0;stroke-opacity:1;marker:none;marker-start:none;marker-mid:none;marker-end:none;color-rendering:auto;image-rendering:auto;shape-rendering:auto;text-rendering:auto;enable-background:accumulate"
       id="rect4903"
       width="988.84253"
       height="680.57483"
       x="31.759842"
       y="31.759815" />
    <text
       transform="scale(0.999968,1.000032)"
       xml:space="preserve"
       style="color:#000000;font-style:normal;font-variant:normal;font-weight:normal;font-stretch:normal;font-size:10px;line-height:125%;font-family:'Fira Sans';-inkscape-font-specification:'Fira Sans, Normal';text-indent:0;text-align:start;text-decoration:none;text-decoration-line:none;letter-spacing:0px;word-spacing:0px;text-transform:none;direction:ltr;block-progression:tb;writing-mode:lr-tb;baseline-shift:baseline;text-anchor:start;display:inline;overflow:visible;visibility:visible;fill:#000000;fill-opacity:1;fill-rule:nonzero;stroke:none;stroke-width:1px;stroke-linecap:butt;stroke-linejoin:miter;stroke-opacity:1;marker:none;marker-start:none;marker-mid:none;marker-end:none;enable-background:accumulate"
       x="74.153564"
       y="705.57819"
       id="text4208"
       sodipodi:linespacing="125%"><tspan
         sodipodi:role="line"
         id="tspan4210"
         x="74.153564"
         y="705.57819">1 : 50 000</tspan></text>
    <text
       transform="scale(0.999968,1.000032)"
       xml:space="preserve"
       style="color:#000000;font-style:normal;font-variant:normal;font-weight:500;font-stretch:normal;font-size:15px;line-height:125%;font-family:'Fira Sans';-inkscape-font-specification:'Fira Sans, Medium';text-indent:0;text-align:start;text-decoration:none;text-decoration-line:none;letter-spacing:0px;word-spacing:0px;text-transform:none;direction:ltr;block-progression:tb;writing-mode:lr-tb;baseline-shift:baseline;text-anchor:start;display:inline;overflow:visible;visibility:visible;fill:#000000;fill-opacity:1;fill-rule:nonzero;stroke:none;stroke-width:1px;stroke-linecap:butt;stroke-linejoin:miter;stroke-opacity:1;marker:none;marker-start:none;marker-mid:none;marker-end:none;enable-background:accumulate"
       x="49.953419"
       y="690.42633"
       id="text4208-8"
       sodipodi:linespacing="125%"><tspan
         sodipodi:role="line"
         id="tspan4210-5"
         x="49.953419"
         y="690.42633">Saarbrücken</tspan></text>
  </g>
</svg>
